<svg id="visual" viewBox="0 0 900 600" width="900" height="600" xmlns="http://www.w3.org/2000/svg" xmlns:xlink="http://www.w3.org/1999/xlink" version="1.1"><rect x="0" y="0" width="900" height="600" fill="#001220"></rect><path d="M0 155L21.5 167.3C43 179.7 86 204.3 128.8 196.8C171.7 189.3 214.3 149.7 257.2 126.8C300 104 343 98 385.8 104.7C428.7 111.3 471.3 130.7 514.2 133C557 135.3 600 120.7 642.8 114.8C685.7 109 728.3 112 771.2 127.5C814 143 857 171 878.5 185L900 199L900 601L878.5 601C857 601 814 601 771.2 601C728.3 601 685.7 601 642.8 601C600 601 557 601 514.2 601C471.3 601 428.7 601 385.8 601C343 601 300 601 257.2 601C214.3 601 171.7 601 128.8 601C86 601 43 601 21.5 601L0 601Z" fill="#ae1b93"></path><path d="M0 272L21.5 275.5C43 279 86 286 128.8 272.5C171.7 259 214.3 225 257.2 218C300 211 343 231 385.8 244.7C428.7 258.3 471.3 265.7 514.2 263.7C557 261.7 600 250.3 642.8 240.3C685.7 230.3 728.3 221.7 771.2 224.8C814 228 857 243 878.5 250.5L900 258L900 601L878.5 601C857 601 814 601 771.2 601C728.3 601 685.7 601 642.8 601C600 601 557 601 514.2 601C471.3 601 428.7 601 385.8 601C343 601 300 601 257.2 601C214.3 601 171.7 601 128.8 601C86 601 43 601 21.5 601L0 601Z" fill="#951d86"></path><path d="M0 289L21.5 277.5C43 266 86 243 128.8 236.7C171.7 230.3 214.3 240.7 257.2 242.2C300 243.7 343 236.3 385.8 250C428.7 263.7 471.3 298.3 514.2 297.2C557 296 600 259 642.8 261.3C685.7 263.7 728.3 305.3 771.2 314.2C814 323 857 299 878.5 287L900 275L900 601L878.5 601C857 601 814 601 771.2 601C728.3 601 685.7 601 642.8 601C600 601 557 601 514.2 601C471.3 601 428.7 601 385.8 601C343 601 300 601 257.2 601C214.3 601 171.7 601 128.8 601C86 601 43 601 21.5 601L0 601Z" fill="#7d1c79"></path><path d="M0 381L21.5 379.8C43 378.7 86 376.3 128.8 359.3C171.7 342.3 214.3 310.7 257.2 296.2C300 281.7 343 284.3 385.8 283.8C428.7 283.3 471.3 279.7 514.2 292.3C557 305 600 334 642.8 333C685.7 332 728.3 301 771.2 303.5C814 306 857 342 878.5 360L900 378L900 601L878.5 601C857 601 814 601 771.2 601C728.3 601 685.7 601 642.8 601C600 601 557 601 514.2 601C471.3 601 428.7 601 385.8 601C343 601 300 601 257.2 601C214.3 601 171.7 601 128.8 601C86 601 43 601 21.5 601L0 601Z" fill="#661a6a"></path><path d="M0 356L21.5 367.7C43 379.3 86 402.7 128.8 412.2C171.7 421.7 214.3 417.3 257.2 405.2C300 393 343 373 385.8 361.7C428.7 350.3 471.3 347.7 514.2 346.7C557 345.7 600 346.3 642.8 357.3C685.7 368.3 728.3 389.7 771.2 399.2C814 408.7 857 406.3 878.5 405.2L900 404L900 601L878.5 601C857 601 814 601 771.2 601C728.3 601 685.7 601 642.8 601C600 601 557 601 514.2 601C471.3 601 428.7 601 385.8 601C343 601 300 601 257.2 601C214.3 601 171.7 601 128.8 601C86 601 43 601 21.5 601L0 601Z" fill="#51175b"></path><path d="M0 473L21.5 471.2C43 469.3 86 465.7 128.8 454.3C171.7 443 214.3 424 257.2 415C300 406 343 407 385.8 415.8C428.7 424.7 471.3 441.3 514.2 437.8C557 434.3 600 410.7 642.8 413.5C685.7 416.3 728.3 445.7 771.2 453.7C814 461.7 857 448.3 878.5 441.7L900 435L900 601L878.5 601C857 601 814 601 771.2 601C728.3 601 685.7 601 642.8 601C600 601 557 601 514.2 601C471.3 601 428.7 601 385.8 601C343 601 300 601 257.2 601C214.3 601 171.7 601 128.8 601C86 601 43 601 21.5 601L0 601Z" fill="#3d134c"></path><path d="M0 493L21.5 493.2C43 493.3 86 493.7 128.8 498.7C171.7 503.7 214.3 513.3 257.2 514.3C300 515.3 343 507.7 385.8 500.3C428.7 493 471.3 486 514.2 479.2C557 472.3 600 465.7 642.8 463.3C685.7 461 728.3 463 771.2 464C814 465 857 465 878.5 465L900 465L900 601L878.5 601C857 601 814 601 771.2 601C728.3 601 685.7 601 642.8 601C600 601 557 601 514.2 601C471.3 601 428.7 601 385.8 601C343 601 300 601 257.2 601C214.3 601 171.7 601 128.8 601C86 601 43 601 21.5 601L0 601Z" fill="#2b0e3c"></path><path d="M0 513L21.5 514C43 515 86 517 128.8 515.5C171.7 514 214.3 509 257.2 515.5C300 522 343 540 385.8 547.8C428.7 555.7 471.3 553.3 514.2 551C557 548.7 600 546.3 642.8 543.7C685.7 541 728.3 538 771.2 530.8C814 523.7 857 512.3 878.5 506.7L900 501L900 601L878.5 601C857 601 814 601 771.2 601C728.3 601 685.7 601 642.8 601C600 601 557 601 514.2 601C471.3 601 428.7 601 385.8 601C343 601 300 601 257.2 601C214.3 601 171.7 601 128.8 601C86 601 43 601 21.5 601L0 601Z" fill="#1c072c"></path></svg>