<svg id="visual" viewBox="0 0 960 540" width="960" height="540" xmlns="http://www.w3.org/2000/svg" xmlns:xlink="http://www.w3.org/1999/xlink" version="1.1">
  <rect x="0" y="0" width="960" height="540" fill="#001220"></rect>
  <path d="M0 120L22.8 128.5C45.7 137 91.3 156 137 165.3C182.7 174.7 228.3 174.7 274 162.5C319.7 150.3 365.3 125.7 411.2 118.2C457 110.7 503 119.3 548.8 121.8C594.7 124.3 640.3 120.7 686 124.2C731.7 127.7 777.3 138.2 823 136.8C868.7 135.3 914.3 120.3 937.2 112.5L960 104.7L960 541L937.2 541C914.3 541 868.7 541 823 541C777.3 541 731.7 541 686 541C640.3 541 594.7 541 548.8 541C503 541 457 541 411.2 541C365.3 541 319.7 541 274 541C228.3 541 182.7 541 137 541C91.3 541 45.7 541 22.8 541L0 541Z" fill="#100a50"></path>

  <path d="M0 160L22.8 167.3C45.7 174.7 91.3 189.3 137 196.3C182.7 203.3 228.3 204.7 274 195.8C319.7 187 365.3 167.3 411.2 164.5C457 161.7 503 175.7 548.8 179.2C594.7 182.7 640.3 186.7 686 188.8C731.7 190.8 777.3 190.7 823 190.2C868.7 189.7 914.3 188.7 937.2 188.2L960 187L960 541L937.2 541C914.3 541 868.7 541 823 541C777.3 541 731.7 541 686 541C640.3 541 594.7 541 548.8 541C503 541 457 541 411.2 541C365.3 541 319.7 541 274 541C228.3 541 182.7 541 137 541C91.3 541 45.7 541 22.8 541L0 541Z" fill="#220a66"></path>

  <path d="M0 204L22.8 206.2C45.7 208.3 91.3 212.7 137 195.3C182.7 178 228.3 139 274 145.8C319.7 152.7 365.3 205.3 411.2 210.8C457 216.3 503 174.7 548.8 171.5C594.7 168.3 640.3 203.7 686 208.7C731.7 213.7 777.3 188.3 823 174.7C868.7 161 914.3 159 937.2 158L960 157L960 541L937.2 541C914.3 541 868.7 541 823 541C777.3 541 731.7 541 686 541C640.3 541 594.7 541 548.8 541C503 541 457 541 411.2 541C365.3 541 319.7 541 274 541C228.3 541 182.7 541 137 541C91.3 541 45.7 541 22.8 541L0 541Z" fill="#411060"></path>
  <path d="M0 172L22.8 179C45.7 186 91.3 200 137 210.3C182.7 220.7 228.3 227.3 274 221.8C319.7 216.3 365.3 198.7 411.2 212C457 225.3 503 269.7 548.8 274.7C594.7 279.7 640.3 245.3 686 238.5C731.7 231.7 777.3 252.3 823 263.7C868.7 275 914.3 277 937.2 278L960 279L960 541L937.2 541C914.3 541 868.7 541 823 541C777.3 541 731.7 541 686 541C640.3 541 594.7 541 548.8 541C503 541 457 541 411.2 541C365.3 541 319.7 541 274 541C228.3 541 182.7 541 137 541C91.3 541 45.7 541 22.8 541L0 541Z" fill="#630d65"></path>
  <path d="M0 249L22.8 258C45.7 267 91.3 285 137 300.5C182.7 316 228.3 329 274 323.8C319.7 318.7 365.3 295.3 411.2 286C457 276.7 503 281.3 548.8 295.2C594.7 309 640.3 332 686 333C731.7 334 777.3 313 823 297.7C868.7 282.3 914.3 272.7 937.2 267.8L960 263L960 541L937.2 541C914.3 541 868.7 541 823 541C777.3 541 731.7 541 686 541C640.3 541 594.7 541 548.8 541C503 541 457 541 411.2 541C365.3 541 319.7 541 274 541C228.3 541 182.7 541 137 541C91.3 541 45.7 541 22.8 541L0 541Z" fill="#830a66"></path>
  <path d="M0 377L22.8 385.3C45.7 393.7 91.3 410.3 137 406.2C182.7 402 228.3 377 274 361C319.7 345 365.3 338 411.2 351.2C457 364.3 503 397.7 548.8 414.5C594.7 431.3 640.3 431.7 686 414.5C731.7 397.3 777.3 362.7 823 353.3C868.7 344 914.3 360 937.2 368L960 376L960 541L937.2 541C914.3 541 868.7 541 823 541C777.3 541 731.7 541 686 541C640.3 541 594.7 541 548.8 541C503 541 457 541 411.2 541C365.3 541 319.7 541 274 541C228.3 541 182.7 541 137 541C91.3 541 45.7 541 22.8 541L0 541Z" fill="#a10f64"></path>
  <path d="M0 490L22.8 485.8C45.7 481.7 91.3 473.3 137 472.7C182.7 472 228.3 479 274 470.5C319.7 462 365.3 438 411.2 435.2C457 432.3 503 450.7 548.8 461.7C594.7 472.7 640.3 476.3 686 475.8C731.7 475.3 777.3 470.7 823 470.2C868.7 469.7 914.3 473.3 937.2 475.2L960 477L960 541L937.2 541C914.3 541 868.7 541 823 541C777.3 541 731.7 541 686 541C640.3 541 594.7 541 548.8 541C503 541 457 541 411.2 541C365.3 541 319.7 541 274 541C228.3 541 182.7 541 137 541C91.3 541 45.7 541 22.8 541L0 541Z" fill="#bc1d60"></path>
</svg>
