<svg id="visual" viewBox="0 0 900 600" width="900" height="600" xmlns="http://www.w3.org/2000/svg" xmlns:xlink="http://www.w3.org/1999/xlink" version="1.1"><rect x="0" y="0" width="900" height="600" fill="#001220"></rect><path d="M0 212L21.5 194.5C43 177 86 142 128.8 123.5C171.7 105 214.3 103 257.2 113.5C300 124 343 147 385.8 158.5C428.7 170 471.3 170 514.2 185C557 200 600 230 642.8 249C685.7 268 728.3 276 771.2 260.7C814 245.3 857 206.7 878.5 187.3L900 168L900 601L878.5 601C857 601 814 601 771.2 601C728.3 601 685.7 601 642.8 601C600 601 557 601 514.2 601C471.3 601 428.7 601 385.8 601C343 601 300 601 257.2 601C214.3 601 171.7 601 128.8 601C86 601 43 601 21.5 601L0 601Z" fill="#26b6ad"></path><path d="M0 213L21.5 219.3C43 225.7 86 238.3 128.8 259.2C171.7 280 214.3 309 257.2 312.5C300 316 343 294 385.8 266.2C428.7 238.3 471.3 204.7 514.2 204C557 203.3 600 235.7 642.8 236.8C685.7 238 728.3 208 771.2 212.7C814 217.3 857 256.7 878.5 276.3L900 296L900 601L878.5 601C857 601 814 601 771.2 601C728.3 601 685.7 601 642.8 601C600 601 557 601 514.2 601C471.3 601 428.7 601 385.8 601C343 601 300 601 257.2 601C214.3 601 171.7 601 128.8 601C86 601 43 601 21.5 601L0 601Z" fill="#009fad"></path><path d="M0 326L21.5 336C43 346 86 366 128.8 355.2C171.7 344.3 214.3 302.7 257.2 297.2C300 291.7 343 322.3 385.8 338C428.7 353.7 471.3 354.3 514.2 358.2C557 362 600 369 642.8 358.5C685.7 348 728.3 320 771.2 311.3C814 302.7 857 313.3 878.5 318.7L900 324L900 601L878.5 601C857 601 814 601 771.2 601C728.3 601 685.7 601 642.8 601C600 601 557 601 514.2 601C471.3 601 428.7 601 385.8 601C343 601 300 601 257.2 601C214.3 601 171.7 601 128.8 601C86 601 43 601 21.5 601L0 601Z" fill="#0087a6"></path><path d="M0 380L21.5 390C43 400 86 420 128.8 414.8C171.7 409.7 214.3 379.3 257.2 367.7C300 356 343 363 385.8 373.2C428.7 383.3 471.3 396.7 514.2 397.5C557 398.3 600 386.7 642.8 390.5C685.7 394.3 728.3 413.7 771.2 419.2C814 424.7 857 416.3 878.5 412.2L900 408L900 601L878.5 601C857 601 814 601 771.2 601C728.3 601 685.7 601 642.8 601C600 601 557 601 514.2 601C471.3 601 428.7 601 385.8 601C343 601 300 601 257.2 601C214.3 601 171.7 601 128.8 601C86 601 43 601 21.5 601L0 601Z" fill="#006f97"></path><path d="M0 459L21.5 453.2C43 447.3 86 435.7 128.8 437.3C171.7 439 214.3 454 257.2 466.8C300 479.7 343 490.3 385.8 495.7C428.7 501 471.3 501 514.2 490.2C557 479.3 600 457.7 642.8 457.7C685.7 457.7 728.3 479.3 771.2 487.5C814 495.7 857 490.3 878.5 487.7L900 485L900 601L878.5 601C857 601 814 601 771.2 601C728.3 601 685.7 601 642.8 601C600 601 557 601 514.2 601C471.3 601 428.7 601 385.8 601C343 601 300 601 257.2 601C214.3 601 171.7 601 128.8 601C86 601 43 601 21.5 601L0 601Z" fill="#005786"></path><path d="M0 494L21.5 493.3C43 492.7 86 491.3 128.8 493.2C171.7 495 214.3 500 257.2 508.8C300 517.7 343 530.3 385.8 531.2C428.7 532 471.3 521 514.2 516.2C557 511.3 600 512.7 642.8 513.5C685.7 514.3 728.3 514.7 771.2 512.7C814 510.7 857 506.3 878.5 504.2L900 502L900 601L878.5 601C857 601 814 601 771.2 601C728.3 601 685.7 601 642.8 601C600 601 557 601 514.2 601C471.3 601 428.7 601 385.8 601C343 601 300 601 257.2 601C214.3 601 171.7 601 128.8 601C86 601 43 601 21.5 601L0 601Z" fill="#0a3f72"></path></svg>