<svg id="visual" viewBox="0 0 900 600" width="900" height="600" xmlns="http://www.w3.org/2000/svg" xmlns:xlink="http://www.w3.org/1999/xlink" version="1.1"><rect x="0" y="0" width="900" height="600" fill="#001220"></rect><path d="M0 196L21.5 218.7C43 241.3 86 286.7 128.8 288.2C171.7 289.7 214.3 247.3 257.2 243C300 238.7 343 272.3 385.8 292.7C428.7 313 471.3 320 514.2 301C557 282 600 237 642.8 224.5C685.7 212 728.3 232 771.2 255.5C814 279 857 306 878.5 319.5L900 333L900 0L878.5 0C857 0 814 0 771.2 0C728.3 0 685.7 0 642.8 0C600 0 557 0 514.2 0C471.3 0 428.7 0 385.8 0C343 0 300 0 257.2 0C214.3 0 171.7 0 128.8 0C86 0 43 0 21.5 0L0 0Z" fill="#04b9d0"></path><path d="M0 167L21.5 169.3C43 171.7 86 176.3 128.8 189.8C171.7 203.3 214.3 225.7 257.2 223.5C300 221.3 343 194.7 385.8 199.5C428.7 204.3 471.3 240.7 514.2 243.5C557 246.3 600 215.7 642.8 214.5C685.7 213.3 728.3 241.7 771.2 253C814 264.3 857 258.7 878.5 255.8L900 253L900 0L878.5 0C857 0 814 0 771.2 0C728.3 0 685.7 0 642.8 0C600 0 557 0 514.2 0C471.3 0 428.7 0 385.8 0C343 0 300 0 257.2 0C214.3 0 171.7 0 128.8 0C86 0 43 0 21.5 0L0 0Z" fill="#009cca"></path><path d="M0 128L21.5 145.2C43 162.3 86 196.7 128.8 214.5C171.7 232.3 214.3 233.7 257.2 226.5C300 219.3 343 203.7 385.8 184C428.7 164.3 471.3 140.7 514.2 142.8C557 145 600 173 642.8 192.2C685.7 211.3 728.3 221.7 771.2 225.5C814 229.3 857 226.7 878.5 225.3L900 224L900 0L878.5 0C857 0 814 0 771.2 0C728.3 0 685.7 0 642.8 0C600 0 557 0 514.2 0C471.3 0 428.7 0 385.8 0C343 0 300 0 257.2 0C214.3 0 171.7 0 128.8 0C86 0 43 0 21.5 0L0 0Z" fill="#247dba"></path><path d="M0 109L21.5 109.2C43 109.3 86 109.7 128.8 117.3C171.7 125 214.3 140 257.2 142.2C300 144.3 343 133.7 385.8 137.7C428.7 141.7 471.3 160.3 514.2 170.5C557 180.7 600 182.3 642.8 174.2C685.7 166 728.3 148 771.2 147.5C814 147 857 164 878.5 172.5L900 181L900 0L878.5 0C857 0 814 0 771.2 0C728.3 0 685.7 0 642.8 0C600 0 557 0 514.2 0C471.3 0 428.7 0 385.8 0C343 0 300 0 257.2 0C214.3 0 171.7 0 128.8 0C86 0 43 0 21.5 0L0 0Z" fill="#495d9f"></path><path d="M0 120L21.5 122.2C43 124.3 86 128.7 128.8 131.2C171.7 133.7 214.3 134.3 257.2 125.2C300 116 343 97 385.8 95.2C428.7 93.3 471.3 108.7 514.2 115.8C557 123 600 122 642.8 119.3C685.7 116.7 728.3 112.3 771.2 115C814 117.7 857 127.3 878.5 132.2L900 137L900 0L878.5 0C857 0 814 0 771.2 0C728.3 0 685.7 0 642.8 0C600 0 557 0 514.2 0C471.3 0 428.7 0 385.8 0C343 0 300 0 257.2 0C214.3 0 171.7 0 128.8 0C86 0 43 0 21.5 0L0 0Z" fill="#5b3b7a"></path><path d="M0 55L21.5 53.7C43 52.3 86 49.7 128.8 48.3C171.7 47 214.3 47 257.2 48.5C300 50 343 53 385.8 52.2C428.7 51.3 471.3 46.7 514.2 50.5C557 54.3 600 66.7 642.8 73.5C685.7 80.3 728.3 81.7 771.2 77C814 72.3 857 61.7 878.5 56.3L900 51L900 0L878.5 0C857 0 814 0 771.2 0C728.3 0 685.7 0 642.8 0C600 0 557 0 514.2 0C471.3 0 428.7 0 385.8 0C343 0 300 0 257.2 0C214.3 0 171.7 0 128.8 0C86 0 43 0 21.5 0L0 0Z" fill="#5d174f"></path></svg>