<?xml version="1.0" encoding="iso-8859-1"?>
<!-- Generator: Adobe Illustrator 25.0.1, SVG Export Plug-In . SVG Version: 6.00 Build 0)  -->
<svg version="1.1" xmlns="http://www.w3.org/2000/svg" xmlns:xlink="http://www.w3.org/1999/xlink" x="0px" y="0px"
	 viewBox="0 0 48 48" style="enable-background:new 0 0 48 48;" xml:space="preserve">
<g id="&#x421;&#x43B;&#x43E;&#x439;_1">
</g>
<g id="&#x421;&#x43B;&#x43E;&#x439;_2">
	<linearGradient id="SVGID_1_" gradientUnits="userSpaceOnUse" x1="10.2809" y1="1.3222" x2="24.7416" y2="16.9964">
		<stop  offset="0" style="stop-color:#196DE5"/>
		<stop  offset="1" style="stop-color:#1351C8"/>
	</linearGradient>
	<path style="fill:url(#SVGID_1_);" d="M4.662,6.941c-0.001,0-0.003,0-0.004,0c-1.42,0-2.179,1.675-1.241,2.743L16,24L30.869,7.159
		c-0.241-0.101-0.501-0.16-0.768-0.161L4.662,6.941z"/>
	<linearGradient id="SVGID_2_" gradientUnits="userSpaceOnUse" x1="17.1837" y1="23.3682" x2="27.7399" y2="36.2129">
		<stop  offset="0" style="stop-color:#4D9FFF"/>
		<stop  offset="1" style="stop-color:#1667EB"/>
	</linearGradient>
	<path style="fill:url(#SVGID_2_);" d="M38.056,14.996l-6.46-7.322c-0.202-0.229-0.452-0.401-0.727-0.516L16,24L3.457,38.215
		c-0.951,1.078-0.192,2.769,1.24,2.782l10.785-0.007L38.056,14.996z"/>
	<linearGradient id="SVGID_3_" gradientUnits="userSpaceOnUse" x1="27.3238" y1="27.2093" x2="33.4365" y2="37.4483">
		<stop  offset="0" style="stop-color:#70BCFD"/>
		<stop  offset="1" style="stop-color:#4A9FF9"/>
	</linearGradient>
	<path style="fill:url(#SVGID_3_);" d="M44.217,21.982l-6.161-6.985L15.482,41l14.796-0.01c0.506-0.046,0.98-0.273,1.319-0.658
		l12.62-14.308C45.236,24.87,45.236,23.137,44.217,21.982z"/>
	<path style="opacity:0.05;enable-background:new    ;" d="M16,24L30.869,7.159c-0.241-0.101-0.501-0.16-0.768-0.161l-0.423-0.001
		L15.336,23.245L16,24z"/>
	<path style="opacity:0.07;enable-background:new    ;" d="M15.669,23.624L16,24L30.869,7.159c-0.173-0.073-0.358-0.114-0.546-0.137
		L15.669,23.624z"/>
</g>
</svg>