<?xml version="1.0" encoding="iso-8859-1"?><!-- Generator: Adobe Illustrator 23.0.2, SVG Export Plug-In . SVG Version: 6.00 Build 0)  --><svg xmlns="http://www.w3.org/2000/svg" xmlns:xlink="http://www.w3.org/1999/xlink" viewBox="0 0 48 48" width="48px" height="48px"><circle style="fill:#5C6BC0;" cx="41.5" cy="16.5" r="3.5"/><path style="fill:#5C6BC0;" d="M4,40l23,4V4L4,8V40z"/><polygon style="fill:#FFFFFF;" points="21,16.27 21,19 17.01,19.18 16.99,31.04 14.01,30.95 14.01,19.29 10,19.45 10,16.94 "/><path style="fill:#5C6BC0;" d="M36,14c0,2.21-1.79,4-4,4c-1.2,0-2.27-0.53-3-1.36v-5.28c0.73-0.83,1.8-1.36,3-1.36  C34.21,10,36,11.79,36,14z"/><path style="fill:#5C6BC0;" d="M38,23v11c0,0,1.567,0,3.5,0c1.762,0,3.205-1.306,3.45-3H45v-8H38z"/><path style="fill:#5C6BC0;" d="M29,20v17c0,0,1.567,0,3.5,0c1.762,0,3.205-1.306,3.45-3H36V20H29z"/></svg>