
        <svg xmlns="http://www.w3.org/2000/svg" xmlns:xlink="http://www.w3.org/1999/xlink" version="1.1" width="3200" 
        height="2447.9280877932783" viewBox="0 0 3200 2447.9280877932783">
			
			<g transform="scale(10) translate(10, 10)">
				<defs id="SvgjsDefs1537"><linearGradient id="SvgjsLinearGradient1544"><stop id="SvgjsStop1545" stop-color="#905e26" offset="0"></stop><stop id="SvgjsStop1546" stop-color="#f5ec9b" offset="0.5"></stop><stop id="SvgjsStop1547" stop-color="#905e26" offset="1"></stop></linearGradient><linearGradient id="SvgjsLinearGradient1548"><stop id="SvgjsStop1549" stop-color="#905e26" offset="0"></stop><stop id="SvgjsStop1550" stop-color="#f5ec9b" offset="0.5"></stop><stop id="SvgjsStop1551" stop-color="#905e26" offset="1"></stop></linearGradient><linearGradient id="SvgjsLinearGradient1552"><stop id="SvgjsStop1553" stop-color="#905e26" offset="0"></stop><stop id="SvgjsStop1554" stop-color="#f5ec9b" offset="0.5"></stop><stop id="SvgjsStop1555" stop-color="#905e26" offset="1"></stop></linearGradient></defs><g id="SvgjsG1538" featureKey="dsJevG-0" transform="matrix(0.4256155127294666,0,0,0.4256155127294666,86.15767714956584,-3.8423220386369987)" fill="url(#SvgjsLinearGradient1544)"><g xmlns="http://www.w3.org/2000/svg"><path d="M209.1,9.1c-10.2,0.8-19.7,10.2-20.7,20.4c-0.2,1.5-0.2,3,0,4.4c0.7,7.9-2.3,15.7-8,21.3l-1.3,1.2   c-2.7,2.6-8.5,4.3-14.1,5.3c-9.9,1.7-20.1,1.7-30,0c-5.6-1-11.4-2.6-14.1-5.3l-1.2-1.2c-5.7-5.5-8.7-13.4-8-21.3   c0.1-1.5,0.1-2.9,0-4.4c-1-10.2-10.6-19.6-20.8-20.4C76.9,8,65.3,19.6,66.4,33.6c0.9,11,9.7,19.9,20.7,20.8c1.5,0.1,2.9,0.1,4.3,0   c8.1-0.8,16.2,1.6,22,7.4l1.1,1.1c6.3,6.1,9,15,7.6,23.7c-0.4,2.1-0.5,4.3-0.3,6.5c1,13.8,12.3,25.1,26.1,26   c16.5,1.1,30.2-11.9,30.2-28.1c0-1.6-0.2-3.3-0.5-4.8c-1.5-8.6,1.5-17.3,7.8-23.4l1-1c5.8-5.6,13.9-8.2,22-7.4   c1.4,0.2,2.8,0.2,4.3,0c11-0.9,19.8-9.8,20.7-20.8C234.7,19.6,223.1,8,209.1,9.1z"></path><path d="M9.1,90.9c0.8,10.2,10.2,19.7,20.4,20.7c1.5,0.2,3,0.2,4.4,0c7.9-0.7,15.7,2.3,21.3,8l1.2,1.3c2.6,2.7,4.3,8.5,5.3,14.1   c1.7,9.9,1.7,20.1,0,30c-1,5.6-2.6,11.4-5.3,14.1l-1.2,1.2c-5.5,5.7-13.4,8.7-21.3,8c-1.5-0.1-2.9-0.1-4.4,0   c-10.2,1-19.6,10.6-20.4,20.8c-1.1,14,10.5,25.7,24.6,24.5c11-0.9,19.9-9.7,20.8-20.7c0.1-1.5,0.1-2.9,0-4.3   c-0.8-8.1,1.6-16.2,7.4-22l1.1-1.1c6.1-6.3,15-9,23.7-7.6c2.1,0.4,4.3,0.5,6.5,0.3c13.8-1,25.1-12.3,26-26.1   c1.1-16.5-11.9-30.2-28.1-30.2c-1.6,0-3.3,0.2-4.8,0.5c-8.6,1.5-17.3-1.5-23.4-7.8l-1-1c-5.6-5.8-8.2-13.9-7.4-22   c0.2-1.4,0.2-2.8,0-4.3c-1-11-9.9-19.9-20.9-20.7C19.6,65.3,8,76.9,9.1,90.9z"></path><path d="M90.9,290.9c10.2-0.8,19.7-10.2,20.7-20.4c0.2-1.5,0.2-3,0-4.4c-0.7-7.9,2.3-15.7,8-21.3l1.2-1.2c2.7-2.6,8.5-4.3,14.1-5.3   c9.9-1.7,20.1-1.7,30,0c5.6,1,11.4,2.6,14.1,5.3l1.2,1.2c5.7,5.5,8.7,13.4,8,21.3c-0.1,1.5-0.1,2.9,0,4.4   c1,10.2,10.6,19.6,20.7,20.4c14,1.1,25.7-10.5,24.5-24.6c-0.9-11-9.7-19.9-20.7-20.8c-1.5-0.1-2.9-0.1-4.3,0   c-8.1,0.8-16.2-1.6-22-7.4l-1.1-1.1c-6.3-6.1-9-15-7.6-23.7c0.4-2.1,0.5-4.3,0.3-6.5c-1-13.8-12.3-25.1-26.1-26   c-16.5-1.1-30.2,11.9-30.2,28.1c0,1.6,0.2,3.3,0.5,4.8c1.5,8.6-1.5,17.3-7.8,23.4l-1,1c-5.8,5.6-13.9,8.2-22,7.4   c-1.4-0.2-2.8-0.2-4.3,0c-11,0.9-19.8,9.8-20.7,20.8C65.3,280.4,76.9,292,90.9,290.9z"></path><path d="M290.9,209.1c-0.8-10.2-10.2-19.7-20.4-20.7c-1.5-0.2-3-0.2-4.4,0c-7.9,0.7-15.7-2.3-21.3-8l-1.2-1.3   c-2.6-2.7-4.3-8.5-5.3-14.1c-1.7-9.9-1.7-20.1,0-30c1-5.6,2.6-11.4,5.3-14.1l1.2-1.2c5.5-5.7,13.4-8.7,21.3-8   c1.5,0.1,2.9,0.1,4.4,0c10.2-1,19.6-10.6,20.4-20.7c1.1-14-10.5-25.7-24.6-24.5c-11,0.9-19.9,9.7-20.8,20.7c-0.1,1.5-0.1,2.9,0,4.3   c0.8,8.1-1.6,16.2-7.4,22l-1.1,1.1c-6.1,6.3-15,9-23.7,7.6c-2.1-0.4-4.3-0.5-6.5-0.3c-13.8,1-25.1,12.3-26,26.1   c-1.1,16.5,11.9,30.2,28.1,30.2c1.6,0,3.3-0.2,4.8-0.5c8.6-1.5,17.3,1.5,23.4,7.8l1,1c5.6,5.8,8.2,13.9,7.4,22   c-0.2,1.4-0.2,2.8,0,4.3c0.9,11,9.8,19.8,20.8,20.7C280.4,234.7,292,223.1,290.9,209.1z"></path><path d="M89.1,107.2c10,0,18.2-8.1,18.2-18.2c0-10-8.1-18.2-18.2-18.2c-10,0-18.2,8.1-18.2,18.2C70.9,99.1,79,107.2,89.1,107.2z"></path><path d="M89.1,229.1c10,0,18.2-8.1,18.2-18.2c0-10-8.1-18.2-18.2-18.2c-10,0-18.2,8.1-18.2,18.2C70.9,221,79,229.1,89.1,229.1z"></path><path d="M210.9,229.1c10,0,18.2-8.1,18.2-18.2c0-10-8.1-18.2-18.2-18.2c-10,0-18.2,8.1-18.2,18.2   C192.8,221,200.9,229.1,210.9,229.1z"></path><path d="M210.9,107.2c10,0,18.2-8.1,18.2-18.2c0-10-8.1-18.2-18.2-18.2c-10,0-18.2,8.1-18.2,18.2   C192.8,99.1,200.9,107.2,210.9,107.2z"></path><path d="M150,168.2c10,0,18.2-8.1,18.2-18.2s-8.1-18.2-18.2-18.2s-18.2,8.1-18.2,18.2S140,168.2,150,168.2z"></path></g></g><g id="SvgjsG1539" featureKey="0oZDye-0" transform="matrix(4.8231510662416035,0,0,4.8231510662416035,-3.376214025856655,110.48231372670958)" fill="url(#SvgjsLinearGradient1548)"><path d="M7.6 14.120000000000001 c1.44 0.04 3.28 0.04 4.62 -0.02 l0 0.52 l-0.48 0.08 c-0.88 0.14 -0.78 1.02 -0.78 2.54 c0 0.6 0.02 1.22 0.06 1.76 l0.38 0.04 c0.1 0.02 0.14 0.08 0.14 0.16 l0 0.44 c-0.32 -0.06 -0.64 -0.06 -0.86 -0.06 c-1.5 0 -2.04 0.68 -4.2 0.68 c-3.4 0 -5.78 -2.84 -5.78 -6.54 c0 -3.68 2.28 -6.46 5.6 -6.46 c1.4 0 1.78 0.38 3 0.38 c0.2 0 0.32 0 0.6 -0.04 c0.22 1.14 0.5 2.18 1.04 3.4 l-0.92 0 c-0.82 -1.98 -1.96 -3.16 -4 -3.16 c-1.58 0 -3.28 1.28 -3.28 5.32 c0 3.78 1.7 6.5 3.88 6.5 c2.5 0 2.58 -0.88 2.58 -3.42 c0 -1.24 0.06 -1.46 -1.08 -1.56 l-0.52 -0.06 l0 -0.5 z M20.880000000000003 18.1 c0 0.68 0.4 0.82 1.18 0.74 l0 0.56 c-1.56 0.36 -2.1 0.84 -2.6 0.84 c-0.26 0 -0.42 -0.14 -0.4 -0.48 l0.1 -1.52 c-0.48 0.88 -1.48 2 -3.12 2 c-1.34 0 -2.92 -0.66 -2.92 -2.54 c0 -1.74 1.1 -3 5.94 -4.02 l0 -0.6 c0 -1.9 -0.02 -2.76 -1.12 -2.76 c-3.12 0 -1.64 2.98 -3.26 2.98 c-0.58 0 -0.86 -0.36 -0.86 -0.84 c0 -1.44 1.84 -2.66 4.14 -2.66 c2.36 0 2.92 0.84 2.92 3.28 l0 5.02 z M16.66 19.42 c1.32 0 2.14 -1.38 2.4 -2.02 l0 -3.16 c-3.68 0.82 -4 2.42 -4 3.36 c0 1.1 0.6 1.82 1.6 1.82 z M37.24 18.74 c0 0.5 0.54 0.66 1.18 0.74 l0 0.52 c-1.38 -0.06 -2.78 -0.06 -4.18 0 l0 -0.52 c0.66 -0.08 1.18 -0.24 1.18 -0.74 l0 -5.76 c0 -1.42 -0.3 -2.38 -1.28 -2.38 c-1.32 0 -2.4 1.32 -2.68 1.92 l0 6.22 c0 0.5 0.54 0.66 1.18 0.74 l0 0.52 c-1.38 -0.06 -2.78 -0.06 -4.18 0 l0 -0.52 c0.66 -0.08 1.18 -0.24 1.18 -0.74 l0 -5.76 c0 -1.42 -0.3 -2.38 -1.3 -2.38 c-1.32 0 -2.38 1.32 -2.66 1.92 l0 6.22 c0 0.5 0.54 0.66 1.18 0.74 l0 0.52 c-1.38 -0.06 -2.78 -0.06 -4.18 0 l0 -0.52 c0.66 -0.08 1.18 -0.24 1.18 -0.74 l0 -6.8 c0 -0.68 -0.42 -0.86 -1.2 -0.76 l0 -0.52 c1.54 -0.24 2.22 -0.9 2.64 -0.9 c0.24 0 0.42 0.18 0.38 0.5 l-0.18 1.66 c0.42 -0.68 1.5 -2.12 3.48 -2.12 c1.24 0 2.14 0.74 2.36 2.12 c0.38 -0.7 1.46 -2.12 3.46 -2.12 c1.66 0 2.44 0.94 2.44 2.98 l0 5.96 z M46.98 18.1 c0 0.68 0.4 0.82 1.18 0.74 l0 0.56 c-1.56 0.36 -2.1 0.84 -2.6 0.84 c-0.26 0 -0.42 -0.14 -0.4 -0.48 l0.1 -1.52 c-0.48 0.88 -1.48 2 -3.12 2 c-1.34 0 -2.92 -0.66 -2.92 -2.54 c0 -1.74 1.1 -3 5.94 -4.02 l0 -0.6 c0 -1.9 -0.02 -2.76 -1.12 -2.76 c-3.12 0 -1.64 2.98 -3.26 2.98 c-0.58 0 -0.86 -0.36 -0.86 -0.84 c0 -1.44 1.84 -2.66 4.14 -2.66 c2.36 0 2.92 0.84 2.92 3.28 l0 5.02 z M42.76 19.42 c1.32 0 2.14 -1.38 2.4 -2.02 l0 -3.16 c-3.68 0.82 -4 2.42 -4 3.36 c0 1.1 0.6 1.82 1.6 1.82 z M50.8 8.1 c-0.52 0 -1 -0.44 -1 -1 c0 -0.52 0.48 -0.98 1 -0.98 c0.54 0 1 0.46 1 0.98 c0 0.56 -0.46 1 -1 1 z M51.88 18.74 c0 0.5 0.54 0.66 1.18 0.74 l0 0.52 c-1.4 -0.06 -2.78 -0.06 -4.18 0 l0 -0.52 c0.66 -0.08 1.18 -0.24 1.18 -0.74 l0 -6.92 c0 -0.66 -0.42 -0.84 -1.2 -0.8 l0 -0.52 c1.58 -0.22 2.22 -0.74 2.62 -0.74 c0.3 0 0.52 0.12 0.52 0.48 c0 0.52 -0.12 1.24 -0.12 2.48 l0 6.02 z M61.72 18.1 c0 0.68 0.4 0.82 1.18 0.74 l0 0.56 c-1.56 0.36 -2.1 0.84 -2.6 0.84 c-0.26 0 -0.42 -0.14 -0.4 -0.48 l0.1 -1.52 c-0.48 0.88 -1.48 2 -3.12 2 c-1.34 0 -2.92 -0.66 -2.92 -2.54 c0 -1.74 1.1 -3 5.94 -4.02 l0 -0.6 c0 -1.9 -0.02 -2.76 -1.12 -2.76 c-3.12 0 -1.64 2.98 -3.26 2.98 c-0.58 0 -0.86 -0.36 -0.86 -0.84 c0 -1.44 1.84 -2.66 4.14 -2.66 c2.36 0 2.92 0.84 2.92 3.28 l0 5.02 z M57.5 19.42 c1.32 0 2.14 -1.38 2.4 -2.02 l0 -3.16 c-3.68 0.82 -4 2.42 -4 3.36 c0 1.1 0.6 1.82 1.6 1.82 z"></path></g><g id="SvgjsG1540" featureKey="mo6dJk-0" transform="matrix(0.4691165196501955,0,0,0.4691165196501955,29.878030044903074,215.26974199879885)" fill="url(#SvgjsLinearGradient1552)"><path d="M11.32 6.140000000000001 l0 2.18 l-4.26 0 l0 11.68 l-2.54 0 l0 -11.68 l-4.26 0 l0 -2.18 l11.06 0 z M34.739999999999995 6 q3 0 4.59 1.1 t1.59 3.36 q0 2.82 -2.78 3.82 q0.38 0.46 0.86 1.12 t0.98 1.43 t0.96 1.58 t0.82 1.59 l-2.82 0 q-0.38 -0.72 -0.82 -1.45 t-0.89 -1.42 t-0.89 -1.3 t-0.82 -1.09 q-0.28 0.02 -0.48 0.02 l-0.38 0 l-1.22 0 l0 5.24 l-2.52 0 l0 -13.66 q0.92 -0.2 1.96 -0.27 t1.86 -0.07 z M34.92 8.18 q-0.8 0 -1.48 0.06 l0 4.48 l1.1 0 q0.92 0 1.62 -0.1 t1.17 -0.36 t0.71 -0.7 t0.24 -1.12 q0 -0.64 -0.24 -1.08 t-0.69 -0.7 t-1.07 -0.37 t-1.36 -0.11 z M70.6 20 q-0.28 -0.82 -0.58 -1.62 t-0.58 -1.64 l-5.84 0 q-0.28 0.84 -0.57 1.65 t-0.57 1.61 l-2.62 0 q0.78 -2.22 1.48 -4.1 t1.37 -3.56 t1.33 -3.2 t1.36 -3 l2.38 0 q0.7 1.48 1.36 3 t1.33 3.2 t1.38 3.56 t1.49 4.1 l-2.72 0 z M66.52 8.82 q-0.46 1.06 -1.05 2.58 t-1.23 3.3 l4.56 0 q-0.64 -1.78 -1.24 -3.32 t-1.04 -2.56 z M98.91999999999999 20.3 q-1.56 0 -2.8 -0.48 t-2.1 -1.41 t-1.32 -2.27 t-0.46 -3.08 t0.53 -3.08 t1.45 -2.27 t2.16 -1.41 t2.66 -0.48 q0.86 0 1.56 0.13 t1.22 0.29 t0.86 0.34 t0.48 0.26 l-0.74 2.06 q-0.48 -0.3 -1.37 -0.57 t-1.93 -0.27 q-0.9 0 -1.68 0.31 t-1.35 0.93 t-0.89 1.56 t-0.32 2.18 q0 1.1 0.25 2.02 t0.77 1.59 t1.32 1.04 t1.92 0.37 q1.34 0 2.18 -0.27 t1.3 -0.51 l0.68 2.06 q-0.24 0.16 -0.65 0.32 t-0.97 0.31 t-1.26 0.24 t-1.5 0.09 z M131.48 20 q-0.52 -0.8 -1.2 -1.68 t-1.43 -1.7 t-1.55 -1.56 t-1.58 -1.28 l0 6.22 l-2.52 0 l0 -13.86 l2.52 0 l0 5.72 q0.66 -0.66 1.38 -1.41 t1.43 -1.52 t1.35 -1.49 t1.16 -1.3 l3.02 0 q-0.66 0.76 -1.4 1.58 t-1.52 1.65 t-1.57 1.65 t-1.55 1.56 q0.84 0.64 1.71 1.49 t1.71 1.82 t1.61 2.02 t1.41 2.09 l-2.98 0 z M180.89999999999998 12.280000000000001 q0.9 -1.5 1.76 -3.04 t1.56 -3.1 l2.8 0 q-1.12 2.12 -2.33 4.21 t-2.59 4.21 l0 5.44 l-2.52 0 l0 -5.4 q-1.38 -2.14 -2.6 -4.24 t-2.34 -4.22 l2.96 0 q0.7 1.56 1.54 3.1 t1.76 3.04 z M208.48 13.059999999999999 q0 1.14 0.28 2.07 t0.81 1.58 t1.29 1.01 t1.72 0.36 q0.94 0 1.7 -0.36 t1.29 -1.01 t0.81 -1.58 t0.28 -2.07 t-0.28 -2.07 t-0.81 -1.58 t-1.29 -1.01 t-1.7 -0.36 q-0.96 0 -1.72 0.36 t-1.29 1.02 t-0.81 1.58 t-0.28 2.06 z M219.29999999999998 13.059999999999999 q0 1.78 -0.53 3.14 t-1.44 2.27 t-2.13 1.37 t-2.6 0.46 t-2.61 -0.46 t-2.14 -1.37 t-1.45 -2.27 t-0.54 -3.14 t0.54 -3.13 t1.47 -2.27 t2.15 -1.38 t2.58 -0.46 t2.58 0.46 t2.13 1.38 t1.45 2.27 t0.54 3.13 z M245.07999999999998 20.3 q-1.42 0 -2.44 -0.41 t-1.69 -1.15 t-0.99 -1.74 t-0.32 -2.2 l0 -8.66 l2.54 0 l0 8.42 q0 0.94 0.21 1.61 t0.6 1.09 t0.92 0.62 t1.19 0.2 t1.2 -0.2 t0.93 -0.62 t0.6 -1.09 t0.21 -1.61 l0 -8.42 l2.54 0 l0 8.66 q0 1.2 -0.33 2.2 t-1 1.74 t-1.71 1.15 t-2.46 0.41 z M275.3 6 q3 0 4.59 1.1 t1.59 3.36 q0 2.82 -2.78 3.82 q0.38 0.46 0.86 1.12 t0.98 1.43 t0.96 1.58 t0.82 1.59 l-2.82 0 q-0.38 -0.72 -0.82 -1.45 t-0.89 -1.42 t-0.89 -1.3 t-0.82 -1.09 q-0.28 0.02 -0.48 0.02 l-0.38 0 l-1.22 0 l0 5.24 l-2.52 0 l0 -13.66 q0.92 -0.2 1.96 -0.27 t1.86 -0.07 z M275.48 8.18 q-0.8 0 -1.48 0.06 l0 4.48 l1.1 0 q0.92 0 1.62 -0.1 t1.17 -0.36 t0.71 -0.7 t0.24 -1.12 q0 -0.64 -0.24 -1.08 t-0.69 -0.7 t-1.07 -0.37 t-1.36 -0.11 z M327.65999999999997 18.12 q1.36 0 1.98 -0.46 t0.62 -1.3 q0 -0.5 -0.21 -0.86 t-0.6 -0.65 t-0.95 -0.54 t-1.28 -0.49 q-0.72 -0.26 -1.39 -0.57 t-1.18 -0.77 t-0.82 -1.1 t-0.31 -1.54 q0 -1.88 1.3 -2.95 t3.54 -1.07 q1.3 0 2.31 0.29 t1.59 0.63 l-0.78 2.04 q-0.68 -0.38 -1.49 -0.58 t-1.67 -0.2 q-1.02 0 -1.59 0.42 t-0.57 1.18 q0 0.46 0.19 0.79 t0.54 0.59 t0.82 0.48 t1.03 0.42 q0.98 0.36 1.75 0.73 t1.3 0.88 t0.81 1.2 t0.28 1.67 q0 1.88 -1.33 2.91 t-3.89 1.03 q-0.86 0 -1.57 -0.11 t-1.26 -0.27 t-0.95 -0.33 t-0.64 -0.31 l0.74 -2.06 q0.54 0.3 1.46 0.6 t2.22 0.3 z M358.12 20.3 q-1.42 0 -2.44 -0.41 t-1.69 -1.15 t-0.99 -1.74 t-0.32 -2.2 l0 -8.66 l2.54 0 l0 8.42 q0 0.94 0.21 1.61 t0.6 1.09 t0.92 0.62 t1.19 0.2 t1.2 -0.2 t0.93 -0.62 t0.6 -1.09 t0.21 -1.61 l0 -8.42 l2.54 0 l0 8.66 q0 1.2 -0.33 2.2 t-1 1.74 t-1.71 1.15 t-2.46 0.41 z M390.68 20.3 q-1.56 0 -2.8 -0.48 t-2.1 -1.41 t-1.32 -2.27 t-0.46 -3.08 t0.53 -3.08 t1.45 -2.27 t2.16 -1.41 t2.66 -0.48 q0.86 0 1.56 0.13 t1.22 0.29 t0.86 0.34 t0.48 0.26 l-0.74 2.06 q-0.48 -0.3 -1.37 -0.57 t-1.93 -0.27 q-0.9 0 -1.68 0.31 t-1.35 0.93 t-0.89 1.56 t-0.32 2.18 q0 1.1 0.25 2.02 t0.77 1.59 t1.32 1.04 t1.92 0.37 q1.34 0 2.18 -0.27 t1.3 -0.51 l0.68 2.06 q-0.24 0.16 -0.65 0.32 t-0.97 0.31 t-1.26 0.24 t-1.5 0.09 z M421.12 20.3 q-1.56 0 -2.8 -0.48 t-2.1 -1.41 t-1.32 -2.27 t-0.46 -3.08 t0.53 -3.08 t1.45 -2.27 t2.16 -1.41 t2.66 -0.48 q0.86 0 1.56 0.13 t1.22 0.29 t0.86 0.34 t0.48 0.26 l-0.74 2.06 q-0.48 -0.3 -1.37 -0.57 t-1.93 -0.27 q-0.9 0 -1.68 0.31 t-1.35 0.93 t-0.89 1.56 t-0.32 2.18 q0 1.1 0.25 2.02 t0.77 1.59 t1.32 1.04 t1.92 0.37 q1.34 0 2.18 -0.27 t1.3 -0.51 l0.68 2.06 q-0.24 0.16 -0.65 0.32 t-0.97 0.31 t-1.26 0.24 t-1.5 0.09 z M445.40000000000003 20 l0 -13.86 l8.9 0 l0 2.14 l-6.38 0 l0 3.42 l5.68 0 l0 2.1 l-5.68 0 l0 4.06 l6.86 0 l0 2.14 l-9.38 0 z M478.15999999999997 18.12 q1.36 0 1.98 -0.46 t0.62 -1.3 q0 -0.5 -0.21 -0.86 t-0.6 -0.65 t-0.95 -0.54 t-1.28 -0.49 q-0.72 -0.26 -1.39 -0.57 t-1.18 -0.77 t-0.82 -1.1 t-0.31 -1.54 q0 -1.88 1.3 -2.95 t3.54 -1.07 q1.3 0 2.31 0.29 t1.59 0.63 l-0.78 2.04 q-0.68 -0.38 -1.49 -0.58 t-1.67 -0.2 q-1.02 0 -1.59 0.42 t-0.57 1.18 q0 0.46 0.19 0.79 t0.54 0.59 t0.82 0.48 t1.03 0.42 q0.98 0.36 1.75 0.73 t1.3 0.88 t0.81 1.2 t0.28 1.67 q0 1.88 -1.33 2.91 t-3.89 1.03 q-0.86 0 -1.57 -0.11 t-1.26 -0.27 t-0.95 -0.33 t-0.64 -0.31 l0.74 -2.06 q0.54 0.3 1.46 0.6 t2.22 0.3 z M506.64 18.12 q1.36 0 1.98 -0.46 t0.62 -1.3 q0 -0.5 -0.21 -0.86 t-0.6 -0.65 t-0.95 -0.54 t-1.28 -0.49 q-0.72 -0.26 -1.39 -0.57 t-1.18 -0.77 t-0.82 -1.1 t-0.31 -1.54 q0 -1.88 1.3 -2.95 t3.54 -1.07 q1.3 0 2.31 0.29 t1.59 0.63 l-0.78 2.04 q-0.68 -0.38 -1.49 -0.58 t-1.67 -0.2 q-1.02 0 -1.59 0.42 t-0.57 1.18 q0 0.46 0.19 0.79 t0.54 0.59 t0.82 0.48 t1.03 0.42 q0.98 0.36 1.75 0.73 t1.3 0.88 t0.81 1.2 t0.28 1.67 q0 1.88 -1.33 2.91 t-3.89 1.03 q-0.86 0 -1.57 -0.11 t-1.26 -0.27 t-0.95 -0.33 t-0.64 -0.31 l0.74 -2.06 q0.54 0.3 1.46 0.6 t2.22 0.3 z"></path></g>
			</g>
		</svg>
	